<?xml version="1.0" encoding="UTF-8"?>
<svg width="24" height="24" viewBox="0 0 24 24" fill="none" xmlns="http://www.w3.org/2000/svg">
    <!-- 耳机部分 -->
    <path d="M20 12V11C20 6.58172 16.4183 3 12 3C7.58172 3 4 6.58172 4 11V12" stroke="currentColor" stroke-width="2" stroke-linecap="round"/>
    <!-- 耳机左侧 -->
    <path d="M4 12H6.5C7.32843 12 8 12.6716 8 13.5V16.5C8 17.3284 7.32843 18 6.5 18H4V12Z" fill="currentColor"/>
    <!-- 耳机右侧 -->
    <path d="M20 12H17.5C16.6716 12 16 12.6716 16 13.5V16.5C16 17.3284 16.6716 18 17.5 18H20V12Z" fill="currentColor"/>
    <!-- 对话气泡 -->
    <path d="M12 12C14.2091 12 16 13.7909 16 16V17C16 17.5523 15.5523 18 15 18H9C8.44772 18 8 17.5523 8 17V16C8 13.7909 9.79086 12 12 12Z" fill="currentColor"/>
    <!-- 头像 -->
    <circle cx="12" cy="8" r="2" fill="currentColor"/>
</svg> 